<?xml version="1.0" encoding="utf-8"?>
<!-- Generator: Adobe Illustrator 16.0.0, SVG Export Plug-In . SVG Version: 6.00 Build 0)  -->
<!DOCTYPE svg PUBLIC "-//W3C//DTD SVG 1.1//EN" "http://www.w3.org/Graphics/SVG/1.1/DTD/svg11.dtd">
<svg version="1.1" id="Layer_1" xmlns="http://www.w3.org/2000/svg" xmlns:xlink="http://www.w3.org/1999/xlink" x="0px" y="0px"
	 width="453.979px" height="54px" viewBox="0 0 453.979 54" enable-background="new 0 0 453.979 54" xml:space="preserve">
<g>
	<g>
		<polygon fill="#FFFFFF" points="20.926,18.037 20.972,18.037 20.972,18.021 20.926,18.021 		"/>
		<path fill="#FFFFFF" d="M26.375,13.495c-1.139-0.175-2.215-0.341-3.189-0.341c-0.521,0-0.978,0.051-1.386,0.149l-0.228-6.358
			V5.891c0.449-0.188,0.994-0.275,1.686-0.275c0.889,0,1.904,0.148,2.979,0.307c0.946,0.139,1.919,0.276,2.917,0.34l0.271,7.601
			C28.402,13.806,27.375,13.65,26.375,13.495L26.375,13.495z M15.523,13.495c-1.001,0.155-2.029,0.311-3.053,0.367l0.273-7.601
			c0.998-0.062,1.97-0.201,2.916-0.34c1.075-0.158,2.092-0.307,2.98-0.307c0.691,0,1.236,0.088,1.685,0.275v1.055l-0.228,6.358
			c-0.408-0.099-0.863-0.149-1.387-0.149C17.738,13.154,16.662,13.32,15.523,13.495L15.523,13.495z M31.676,9.01V7.564h-0.891V5.097
			h-0.604c-1.274,0-2.542-0.187-3.77-0.366c-1.119-0.164-2.178-0.32-3.154-0.32c-0.919,0-1.678,0.145-2.309,0.441
			c-0.631-0.297-1.391-0.441-2.309-0.441c-0.977,0-2.035,0.156-3.155,0.32c-1.227,0.18-2.495,0.366-3.771,0.366h-0.602v2.468h-0.892
			V9.01h0.892v1.957H10.23v1.445h0.881v2.68h0.602c1.363,0,2.699-0.207,3.992-0.406c1.092-0.168,2.123-0.328,3.004-0.328
			c0.711,0,1.244,0.104,1.657,0.318v0.001h1.161v-0.001c0.413-0.215,0.947-0.318,1.656-0.318c0.883,0,1.914,0.16,3.006,0.328
			c1.292,0.199,2.63,0.406,3.99,0.406h0.604v-2.68h0.881v-1.445h-0.881V9.01H31.676L31.676,9.01z"/>
		<path fill="#FFFFFF" d="M15.688,7.014c-0.06,0.009-0.118,0.018-0.178,0.026c-0.566,0.083-1.142,0.167-1.723,0.233l-0.033,0.975
			c0.643-0.07,1.273-0.163,1.896-0.255c0.013-0.003,0.025-0.004,0.038-0.007V7.014L15.688,7.014z"/>
		<path fill="#FFFFFF" d="M16.41,6.911v0.973c1.025-0.143,1.965-0.245,2.781-0.178l0.033-0.96
			C18.355,6.681,17.402,6.776,16.41,6.911L16.41,6.911z"/>
		<path fill="#FFFFFF" d="M15.688,11.423c-0.06,0.009-0.118,0.018-0.178,0.026c-0.618,0.091-1.246,0.183-1.881,0.252l-0.035,0.973
			c0.697-0.073,1.383-0.173,2.056-0.271c0.013-0.002,0.025-0.004,0.038-0.006V11.423L15.688,11.423z"/>
		<path fill="#FFFFFF" d="M16.41,11.32v0.973c0.959-0.133,1.846-0.231,2.623-0.188l0.033-0.959
			C18.24,11.103,17.343,11.193,16.41,11.32L16.41,11.32z"/>
		<path fill="#FFFFFF" d="M15.538,9.24v0.975c0.037-0.006,0.074-0.012,0.111-0.018c1.288-0.188,2.466-0.361,3.462-0.295l0.034-0.957
			C18.043,8.877,16.812,9.053,15.538,9.24L15.538,9.24z"/>
		<path fill="#FFFFFF" d="M14.815,9.344c-0.366,0.053-0.735,0.102-1.107,0.146l-0.035,0.973c0.386-0.041,0.767-0.092,1.143-0.144
			L14.815,9.344L14.815,9.344z"/>
		<path fill="#FFFFFF" d="M25.049,6.854c-0.834-0.103-1.637-0.164-2.376-0.108l0.034,0.96c0.697-0.057,1.486,0.01,2.342,0.119V6.854
			L25.049,6.854z"/>
		<path fill="#FFFFFF" d="M28.11,7.273c-0.581-0.066-1.156-0.15-1.723-0.233c-0.207-0.03-0.413-0.061-0.616-0.089v0.973
			c0.156,0.022,0.316,0.045,0.477,0.069c0.622,0.092,1.254,0.185,1.897,0.255L28.11,7.273L28.11,7.273z"/>
		<path fill="#FFFFFF" d="M24.85,9.035c-0.732-0.083-1.439-0.131-2.098-0.09l0.034,0.957c0.623-0.041,1.315,0.01,2.063,0.102
			L24.85,9.035L24.85,9.035z"/>
		<path fill="#FFFFFF" d="M28.189,9.488c-0.607-0.068-1.21-0.156-1.802-0.244c-0.274-0.039-0.546-0.079-0.815-0.117V10.1
			c0.222,0.031,0.447,0.064,0.676,0.098c0.647,0.096,1.307,0.191,1.977,0.264L28.189,9.488L28.189,9.488z"/>
		<path fill="#FFFFFF" d="M26.295,12.409c0.657,0.097,1.327,0.193,2.009,0.265l-0.034-0.973c-0.636-0.069-1.264-0.161-1.882-0.252
			c-0.03-0.005-0.062-0.009-0.093-0.014V12.409L26.295,12.409z"/>
		<path fill="#FFFFFF" d="M25.572,11.332c-0.963-0.133-1.89-0.23-2.742-0.187l0.035,0.959c0.801-0.044,1.715,0.061,2.707,0.201
			V11.332L25.572,11.332z"/>
		<path fill="#FFFFFF" d="M19.695,26.883l1.254-3.135l1.254,3.135l3.37,0.225l-2.595,2.162l0.828,3.272l-2.857-1.801l-2.857,1.801
			l0.83-3.272l-2.596-2.162L19.695,26.883L19.695,26.883z M12.061,25.771L12.061,25.771l5.445,3.959l-2.098,6.451
			c0.002,0.012,0.008,0.024,0.018,0.032c0.01,0.009,0.021,0.009,0.033,0.009l5.49-3.992l5.488,3.988
			c0.012,0.004,0.024,0,0.033-0.005c0.018-0.015,0.021-0.038,0.012-0.059l-2.088-6.427l5.443-3.957V25.77
			c0.025-0.009,0.041-0.034,0.033-0.06c-0.008-0.023-0.035-0.036-0.062-0.028V25.68h-6.73l-2.08-6.402h-0.003
			c0-0.027-0.021-0.05-0.046-0.05c-0.025,0-0.046,0.022-0.046,0.05H20.9l-2.078,6.402H12.09l-0.002,0.004
			c-0.025-0.009-0.053,0.004-0.061,0.028C12.02,25.735,12.033,25.762,12.061,25.771L12.061,25.771z"/>
		<path fill="#FFFFFF" d="M34.465,33.861c-0.49,0.543-1.128,0.919-1.832,1.089c0.1-0.722,0.41-1.396,0.9-1.935
			c0.495-0.546,1.133-0.924,1.834-1.091C35.268,32.646,34.957,33.32,34.465,33.861L34.465,33.861z M31.83,29.627
			c-0.094-0.729,0.033-1.459,0.359-2.107c0.482,0.543,0.791,1.215,0.887,1.943c0.097,0.725-0.03,1.455-0.357,2.104
			C32.236,31.023,31.926,30.352,31.83,29.627L31.83,29.627z M33.289,24.115c-0.137-0.723-0.054-1.459,0.232-2.125
			c0.513,0.512,0.862,1.166,1,1.887c0.141,0.719,0.059,1.455-0.23,2.123C33.777,25.486,33.428,24.833,33.289,24.115L33.289,24.115z
			 M36.768,25.724c0.051,0.726-0.115,1.448-0.484,2.081c-0.367,0.633-0.912,1.133-1.567,1.445c-0.051-0.727,0.114-1.449,0.482-2.082
			C35.569,26.533,36.115,26.035,36.768,25.724L36.768,25.724z M31.434,39.412c-0.592,0.43-1.287,0.664-2.017,0.688
			c0.246-0.688,0.688-1.281,1.282-1.709c0.594-0.432,1.291-0.666,2.02-0.686C32.471,38.389,32.027,38.982,31.434,39.412
			L31.434,39.412z M29.73,34.725c0.061-0.732,0.334-1.42,0.787-1.985c0.359,0.628,0.523,1.351,0.467,2.081
			c-0.057,0.73-0.33,1.422-0.785,1.986C29.84,36.176,29.674,35.455,29.73,34.725L29.73,34.725z M27.83,39.633
			c-0.205,0.701-0.616,1.318-1.178,1.779c-0.223-0.689-0.234-1.43-0.028-2.133c0.209-0.705,0.621-1.322,1.181-1.78
			C28.026,38.186,28.037,38.928,27.83,39.633L27.83,39.633z M28.932,42.811c-0.383,0.619-0.939,1.109-1.61,1.406
			c-0.465,0.208-0.958,0.313-1.466,0.313l0,0c-0.219,0-0.436-0.02-0.648-0.06c0.383-0.619,0.938-1.105,1.607-1.404
			S28.221,42.682,28.932,42.811L28.932,42.811z M22.643,43.096c0.352-0.647,0.881-1.168,1.523-1.5
			c0.074,0.719-0.066,1.445-0.416,2.094c-0.345,0.645-0.874,1.164-1.52,1.5C22.156,44.467,22.297,43.739,22.643,43.096
			L22.643,43.096z M14.506,44.217c-0.669-0.297-1.227-0.787-1.609-1.406c0.711-0.129,1.447-0.043,2.118,0.256
			c0.668,0.3,1.225,0.787,1.607,1.406C15.91,44.604,15.173,44.516,14.506,44.217L14.506,44.217z M13.998,39.631
			c-0.207-0.703-0.195-1.445,0.026-2.132c0.559,0.458,0.971,1.073,1.18,1.778c0.206,0.705,0.194,1.445-0.028,2.135
			C14.614,40.951,14.203,40.334,13.998,39.631L13.998,39.631z M17.662,41.596c0.643,0.332,1.172,0.853,1.521,1.496
			c0.348,0.647,0.488,1.375,0.414,2.098c-0.645-0.336-1.174-0.855-1.52-1.5C17.729,43.041,17.588,42.314,17.662,41.596
			L17.662,41.596z M10.395,39.412c-0.594-0.43-1.037-1.023-1.284-1.707c0.729,0.02,1.425,0.254,2.019,0.686
			c0.594,0.428,1.037,1.021,1.283,1.709C11.682,40.076,10.986,39.842,10.395,39.412L10.395,39.412z M11.311,32.738
			c0.453,0.566,0.727,1.253,0.787,1.984c0.057,0.731-0.109,1.452-0.469,2.084c-0.455-0.565-0.729-1.257-0.785-1.988
			C10.787,34.089,10.951,33.366,11.311,32.738L11.311,32.738z M7.363,33.861c-0.49-0.541-0.803-1.217-0.902-1.937
			c0.702,0.167,1.34,0.545,1.833,1.091c0.491,0.539,0.803,1.213,0.902,1.935C8.491,34.78,7.854,34.404,7.363,33.861L7.363,33.861z
			 M7.113,29.25c-0.654-0.312-1.201-0.812-1.568-1.445c-0.369-0.633-0.535-1.354-0.484-2.081c0.652,0.312,1.199,0.81,1.57,1.444
			C6.998,27.801,7.164,28.523,7.113,29.25L7.113,29.25z M7.306,23.875c0.139-0.721,0.489-1.373,1.001-1.885
			c0.287,0.666,0.369,1.402,0.232,2.123C8.4,24.833,8.051,25.486,7.537,26C7.248,25.332,7.166,24.596,7.306,23.875L7.306,23.875z
			 M8.752,29.461c0.096-0.727,0.405-1.398,0.887-1.941c0.326,0.648,0.453,1.379,0.359,2.105c-0.096,0.727-0.405,1.398-0.888,1.939
			C8.782,30.918,8.656,30.188,8.752,29.461L8.752,29.461z M34.467,30.374c1.123-0.338,2.064-1.077,2.65-2.085
			c0.586-1.006,0.768-2.191,0.51-3.335l-0.113-0.503l-0.494,0.147c-0.568,0.169-1.092,0.443-1.545,0.804
			c0.105-0.56,0.104-1.139-0.006-1.707c-0.221-1.148-0.863-2.16-1.81-2.85l-0.417-0.305l-0.274,0.438
			c-0.621,0.988-0.843,2.168-0.625,3.317c0.22,1.14,0.858,2.146,1.796,2.837c-0.174,0.394-0.292,0.806-0.35,1.228
			c-0.278-0.762-0.753-1.445-1.393-1.974l-0.398-0.33l-0.301,0.42c-0.678,0.949-0.971,2.113-0.822,3.273
			c0.152,1.155,0.732,2.206,1.637,2.953l0.021,0.015c-0.266,0.36-0.475,0.754-0.625,1.172c-0.113-0.804-0.438-1.568-0.955-2.219
			l-0.32-0.404l-0.381,0.351c-0.861,0.789-1.387,1.864-1.48,3.032c-0.092,1.162,0.262,2.307,0.99,3.225l0.019,0.023
			c-0.335,0.295-0.62,0.639-0.854,1.016c0.055-0.812-0.103-1.629-0.475-2.371l-0.231-0.461l-0.444,0.265
			c-1.006,0.595-1.743,1.54-2.075,2.661c-0.328,1.121-0.221,2.312,0.303,3.361l0.014,0.025c-0.389,0.221-0.738,0.496-1.045,0.817
			c0.221-0.783,0.234-1.615,0.023-2.416l-0.131-0.5l-0.488,0.164c-1.106,0.375-2.022,1.147-2.581,2.178
			c-0.534,0.993-0.68,2.144-0.419,3.239c-0.147,0.102-0.302,0.207-0.463,0.316c-0.16-0.109-0.315-0.215-0.463-0.316
			c0.261-1.098,0.116-2.246-0.42-3.241c-0.557-1.026-1.473-1.801-2.58-2.176l-0.488-0.164l-0.131,0.5
			c-0.211,0.801-0.197,1.633,0.023,2.416c-0.306-0.321-0.655-0.599-1.044-0.817l0.013-0.025c0.524-1.049,0.632-2.24,0.304-3.361
			c-0.333-1.121-1.07-2.066-2.076-2.661L13.61,36.08l-0.231,0.461c-0.373,0.742-0.529,1.559-0.475,2.371
			c-0.234-0.379-0.52-0.721-0.854-1.016l0.018-0.023c0.73-0.918,1.082-2.062,0.99-3.227c-0.094-1.166-0.619-2.242-1.48-3.03
			l-0.381-0.351l-0.32,0.404c-0.518,0.648-0.841,1.415-0.955,2.219c-0.149-0.418-0.358-0.812-0.624-1.172l0.021-0.015
			c0.903-0.747,1.484-1.798,1.636-2.953c0.149-1.16-0.143-2.324-0.822-3.273l-0.301-0.42l-0.397,0.33
			c-0.641,0.527-1.115,1.212-1.393,1.976c-0.058-0.424-0.175-0.836-0.351-1.229c0.938-0.691,1.576-1.697,1.796-2.838
			c0.218-1.15-0.004-2.328-0.625-3.316L8.588,20.54l-0.417,0.305c-0.946,0.689-1.589,1.701-1.81,2.848
			c-0.109,0.57-0.111,1.148-0.006,1.709c-0.453-0.36-0.977-0.635-1.544-0.804l-0.494-0.147l-0.113,0.503
			c-0.258,1.144-0.077,2.329,0.509,3.335c0.586,1.008,1.527,1.747,2.65,2.085l0.436,0.13c0.045,0.366,0.137,0.727,0.269,1.074
			c-0.622-0.398-1.333-0.641-2.083-0.701l-0.514-0.042l-0.008,0.517c-0.016,1.172,0.406,2.293,1.188,3.155
			c0.781,0.865,1.855,1.396,3.023,1.492l0.453,0.038c0.119,0.352,0.283,0.684,0.484,0.992c-0.508-0.189-1.045-0.289-1.598-0.289
			c-0.195,0-0.392,0.013-0.585,0.035l-0.512,0.065l0.1,0.504c0.228,1.152,0.871,2.162,1.814,2.849
			c0.784,0.57,1.716,0.871,2.69,0.871c0.191,0,0.385-0.013,0.574-0.035l0.451-0.06c0.191,0.318,0.419,0.609,0.682,0.873
			c-0.731-0.108-1.482-0.045-2.189,0.201l-0.488,0.17l0.203,0.476c0.459,1.076,1.299,1.934,2.361,2.406
			c0.591,0.264,1.216,0.396,1.859,0.396c0.514,0,1.021-0.086,1.51-0.254l0.359-0.125c0.6,0.51,1.277,1.018,2.209,1.656
			c-0.426,0.278-0.895,0.586-1.42,0.922l0.905,0.562c0.512-0.33,0.965-0.627,1.378-0.901c0.413,0.274,0.866,0.571,1.378,0.901
			l0.905-0.562c-0.524-0.336-0.994-0.644-1.418-0.922c0.93-0.64,1.607-1.146,2.207-1.656l0.361,0.125
			c0.488,0.168,0.994,0.254,1.508,0.254l0,0c0.645,0,1.27-0.133,1.859-0.395c1.064-0.477,1.902-1.332,2.361-2.41l0.203-0.475
			l-0.488-0.17c-0.707-0.246-1.458-0.311-2.188-0.199c0.262-0.264,0.49-0.557,0.681-0.875l0.451,0.059
			c0.19,0.023,0.383,0.035,0.574,0.035c0.002,0,0.002,0,0.002,0c0.973,0,1.904-0.301,2.689-0.871
			c0.942-0.686,1.587-1.694,1.813-2.848l0.1-0.504L33.4,36.773c-0.193-0.021-0.391-0.034-0.585-0.034c-0.552,0-1.09,0.1-1.598,0.29
			c0.201-0.311,0.365-0.644,0.486-0.993l0.451-0.038c1.169-0.098,2.242-0.627,3.022-1.492c0.782-0.863,1.204-1.982,1.188-3.154
			l-0.008-0.518l-0.514,0.042c-0.749,0.062-1.461,0.304-2.083,0.701c0.133-0.349,0.224-0.708,0.27-1.074L34.467,30.374
			L34.467,30.374z"/>
		<path fill="#FFFFFF" d="M34.591,40.555c-0.981,1.437-2.104,2.769-3.458,4.063c-4.178,3.837-8.867,5.956-10.188,6.507
			c-1.321-0.551-6.011-2.67-10.188-6.507c-1.354-1.296-2.477-2.628-3.458-4.063c-4.744-6.945-5.366-15.002-5.37-21.261l0.005-0.001
			l19.017-1.057l19.013,1.056C39.957,25.552,39.335,33.607,34.591,40.555L34.591,40.555z M2.941,3.129
			c3.535-0.392,11.483-1.184,18.008-1.184c6.523,0,14.471,0.792,18.007,1.184l0.989,13.93H20.949H1.952L2.941,3.129L2.941,3.129z
			 M41.891,1.519l-0.844-0.106C40.935,1.398,29.703,0.001,20.955,0c-0.002,0-0.004,0-0.006,0c-0.002,0-0.005,0-0.007,0
			C12.195,0.001,0.965,1.398,0.852,1.412L0.008,1.519v15.54H0v2.169c0,6.546,0.648,15.008,5.707,22.415
			c1.043,1.525,2.228,2.934,3.646,4.303l-0.001,0.002c0.01,0.008,0.019,0.016,0.028,0.022c2.744,2.642,6.371,5.132,11.559,8.022V54
			c0.002-0.004,0.003-0.004,0.005-0.004s0.003,0,0.005,0.004v-0.008c5.188-2.891,8.814-5.383,11.559-8.022
			c0.01-0.008,0.019-0.016,0.027-0.022v-0.002c1.419-1.369,2.604-2.776,3.646-4.303c5.059-7.406,5.707-15.869,5.707-22.415v-0.309
			l0.002-0.001L41.891,1.519L41.891,1.519z"/>
	</g>
	<g>
		<path fill="#FFFFFF" d="M74.666,40.637l-0.78,4.32c-1.62,0.779-4.77,1.98-7.29,2.34c-5.58,0-10.8-3.779-10.8-10.77
			s4.65-10.41,11.34-11.311c3.12,0,5.88,1.41,7.169,2.34v4.051h-1.65l-0.96-2.791c-0.81-0.869-2.52-2.04-4.979-2.04
			c-4.44,0-7.47,3.15-7.47,9.03c0,4.859,2.97,9.84,8.22,9.84c1.8,0,3.12-0.99,3.93-1.681l1.62-3.33L74.666,40.637L74.666,40.637z"/>
		<path fill="#FFFFFF" d="M90.835,39.407c0,4.47-2.729,7.05-7.379,7.8c-3.99,0-6.69-3.09-6.69-7.17c0-4.5,2.73-7.051,7.38-7.83
			C88.135,32.208,90.835,35.327,90.835,39.407z M84.206,45.736c2.4,0,3.63-2.459,3.63-5.699c0-3.811-1.83-6.36-4.44-6.36
			c-2.43,0-3.63,2.46-3.63,5.73C79.766,42.827,81.536,45.736,84.206,45.736z"/>
		<path fill="#FFFFFF" d="M101.305,34.277c-0.48-0.36-0.93-0.48-1.74-0.48c-2.04,0-3.6,2.28-3.6,5.551
			c0,3.209,1.74,5.609,4.68,5.609c1.14,0,2.34-0.57,3.39-1.26l0.48,1.14c-1.38,0.99-2.91,1.74-4.89,2.37
			c-3.84,0-6.689-2.52-6.689-7.141c0-4.709,3.45-6.959,7.14-7.858c1.38,0,3.24,0.69,4.14,1.5v3h-2.22L101.305,34.277z"/>
		<path fill="#FFFFFF" d="M118.345,46.697l-1.8,0.09l-5.55-6.93l-0.33-0.75v6.33l1.65,0.299l-0.15,1.051l-2.85-0.09l-3.45,0.09
			l-0.15-1.051l2.1-0.299V27.377l-2.1,0.06l-0.15-1.05l3.6-0.93l1.5-0.12v13.259l0.81-0.359l4.86-4.26l-0.87-0.301v-1.05l2.49,0.09
			l2.25-0.09l0.15,1.05l-1.59,0.301l-5.67,4.59l0.66,0.39l5.79,6.479l1.35,0.301l-0.15,1.05L118.345,46.697z"/>
		<path fill="#FFFFFF" d="M126.805,36.557l3.42-4.199h2.4v3h-2.22c-0.72,0.149-2.04,1.14-2.85,2.129l-0.6,0.721v7.141l3.15,0.299
			l-0.15,1.141l-4.35-0.09l-3.359,0.09l-0.15-1.051l2.1-0.299V34.486l-2.1,0.181l-0.15-1.05l3.6-0.93l1.2-0.09L126.805,36.557z"/>
		<path fill="#FFFFFF" d="M136.705,39.107c0,3.42,1.83,5.85,4.98,5.85c1.2,0,2.64-0.57,3.75-1.26l0.479,1.14
			c-1.439,0.99-3.33,1.83-5.25,2.37c-3.63,0-6.9-2.58-6.9-7.29c0-4.438,2.67-6.81,6.78-7.709c3.96,0,5.31,2.49,5.31,5.64v1.26
			H136.705L136.705,39.107z M142.734,37.607c0-2.311-0.45-3.9-2.76-3.9c-1.83,0-3,1.71-3.24,4.2L142.734,37.607z"/>
		<path fill="#FFFFFF" d="M150.564,46.697l-3.45,0.09l-0.15-1.051l2.1-0.299V27.377l-2.1,0.06l-0.15-1.05l3.6-0.93l1.5-0.12v20.099
			l2.25,0.301l-0.15,1.05L150.564,46.697z"/>
		<path fill="#FFFFFF" d="M158.664,46.697l-3.45,0.09l-0.15-1.051l2.1-0.299V27.377l-2.1,0.06l-0.15-1.05l3.6-0.93l1.5-0.12v20.099
			l2.25,0.301l-0.15,1.05L158.664,46.697z"/>
		<path fill="#FFFFFF" d="M174.263,43.757c0.9,1.11,2.55,1.89,4.23,1.89c2.58,0,4.08-1.619,4.08-3.81c0-2.04-1.32-3.21-3.12-3.989
			l-3.63-1.591c-2.16-0.93-3.93-2.31-3.93-4.979c0-3.271,3-5.189,7.169-6.061c1.89,0,3.99,0.63,5.49,1.74v4.05h-1.5l-0.87-2.729
			c-0.78-0.811-1.74-1.47-3.54-1.47c-2.37,0-3.78,1.291-3.78,3.3c0,1.649,1.17,2.67,2.82,3.39l3.45,1.5
			c2.37,1.021,4.439,2.521,4.41,5.58c0,2.819-1.92,5.55-7.56,6.72c-2.76,0-4.62-0.779-6.21-2.04l-0.66-4.05h2.1L174.263,43.757z"/>
		<path fill="#FFFFFF" d="M195.894,34.277c-0.48-0.36-0.93-0.48-1.74-0.48c-2.04,0-3.6,2.28-3.6,5.551
			c0,3.209,1.74,5.609,4.68,5.609c1.14,0,2.34-0.57,3.39-1.26l0.48,1.14c-1.38,0.99-2.91,1.74-4.89,2.37
			c-3.84,0-6.69-2.52-6.69-7.141c0-4.709,3.45-6.959,7.14-7.858c1.38,0,3.24,0.69,4.14,1.5v3h-2.22L195.894,34.277z"/>
		<path fill="#FFFFFF" d="M205.403,45.438l1.65,0.299l-0.15,1.051l-2.85-0.09l-3.45,0.09l-0.15-1.051l2.1-0.299V27.348l-2.1,0.06
			l-0.15-1.02l3.6-0.93l1.5-0.12v9.719l4.379-2.85c3.84,0,4.47,1.439,4.47,5.25v7.98l2.25,0.299l-0.15,1.051l-3.45-0.09l-2.82,0.09
			l-0.15-1.051l1.47-0.299v-8.58c0-1.561-0.72-2.25-1.92-2.25c-0.9,0-2.07,0.66-3.18,1.35l-0.9,0.57L205.403,45.438L205.403,45.438z
			"/>
		<path fill="#FFFFFF" d="M231.231,39.407c0,4.47-2.729,7.05-7.378,7.8c-3.99,0-6.69-3.09-6.69-7.17c0-4.5,2.73-7.051,7.38-7.83
			C228.533,32.208,231.231,35.327,231.231,39.407z M224.603,45.736c2.4,0,3.63-2.459,3.63-5.699c0-3.811-1.831-6.36-4.44-6.36
			c-2.43,0-3.63,2.46-3.63,5.73C220.163,42.827,221.933,45.736,224.603,45.736z"/>
		<path fill="#FFFFFF" d="M247.252,39.407c0,4.47-2.729,7.05-7.379,7.8c-3.99,0-6.69-3.09-6.69-7.17c0-4.5,2.73-7.051,7.381-7.83
			C244.552,32.208,247.252,35.327,247.252,39.407z M240.623,45.736c2.399,0,3.63-2.459,3.63-5.699c0-3.811-1.83-6.36-4.439-6.36
			c-2.431,0-3.631,2.46-3.631,5.73C236.183,42.827,237.953,45.736,240.623,45.736z"/>
		<path fill="#FFFFFF" d="M251.903,46.697l-3.45,0.09l-0.149-1.051l2.1-0.299V27.377l-2.1,0.06l-0.15-1.05l3.6-0.93l1.5-0.12v20.099
			l2.25,0.301l-0.15,1.05L251.903,46.697z"/>
		<path fill="#FFFFFF" d="M278.271,39.407c0,4.47-2.729,7.05-7.379,7.8c-3.99,0-6.689-3.09-6.689-7.17c0-4.5,2.73-7.051,7.38-7.83
			C275.571,32.208,278.271,35.327,278.271,39.407z M271.642,45.736c2.4,0,3.631-2.459,3.631-5.699c0-3.811-1.83-6.36-4.44-6.36
			c-2.431,0-3.63,2.46-3.63,5.73C267.202,42.827,268.972,45.736,271.642,45.736z"/>
		<path fill="#FFFFFF" d="M285.021,32.958h3.75v1.41h-3.75v11.069l3.451,0.211l-0.15,1.14l-4.65-0.09l-3.449,0.09l-0.15-1.05
			l2.1-0.301V34.368h-2.64v-0.511l0.899-1.049h1.74v-0.301c0-1.8,0.57-2.97,1.65-4.199l2.52-2.851h3.78v2.399h-3.899l-0.57,0.811
			c-0.42,0.57-0.629,1.439-0.629,3.391v0.899H285.021z"/>
		<path fill="#FFFFFF" d="M314.87,25.728l0.3,5.4h-1.02l-1.681-3.9l-7.949-0.09v7.979l4.199-0.12l1.2-3.149h1.05l-0.3,3.75
			l0.3,4.051h-1.05l-1.2-3.15l-4.199-0.12v9l8.249-0.09l2.011-4.05h1.14l-1.05,5.549l-11.909-0.09l-4.14,0.09l-0.15-1.051l2.7-0.389
			V27.167l-2.7-0.39l0.15-1.05l4.14,0.09L314.87,25.728z"/>
		<path fill="#FFFFFF" d="M320.871,46.697l-3.45,0.09l-0.149-1.051l2.1-0.299V34.486l-2.1,0.181l-0.15-1.05l3.6-0.93l1.29-0.09
			l0.15,2.52l4.438-2.91c3.841,0,4.471,1.29,4.471,4.891v8.34l2.279,0.299l-0.149,1.051l-3.45-0.09l-2.88,0.09l-0.15-1.051
			l1.5-0.299v-8.58c0-1.561-0.689-2.25-1.979-2.25c-1.05,0-2.101,0.66-3.12,1.35l-0.9,0.6v8.881l1.65,0.299l-0.15,1.051
			L320.871,46.697z"/>
		<path fill="#FFFFFF" d="M344.871,34.037l1.62-1.83h1.8v2.43h-1.8l-0.99,0.48c0.18,0.449,0.3,0.93,0.3,1.439
			c0,2.551-1.77,4.351-5.85,5.4c-0.42,0-0.811,0-1.17-0.061l-1.62,1.86c0,0.63,0.45,1.05,1.17,1.05h5.49
			c2.729,0,3.93,1.26,3.93,3.09c0,2.459-3.12,4.86-7.65,6.209c-4.35,0-6.54-1.35-6.54-4.14v-0.51l3.271-2.521
			c-2.101-0.779-2.25-1.74-2.25-3.119v-0.181l3-2.069c-1.89-0.66-3.12-2.101-3.12-3.959c0-2.551,1.74-4.351,5.85-5.4
			C342.261,32.208,343.911,32.896,344.871,34.037z M337.911,47.207c-1.53,1.68-1.65,2.22-1.65,2.641c0,1.409,1.62,2.489,4.08,2.489
			s4.561-1.59,4.561-3.601c0-1.079-0.811-1.529-2.851-1.529H337.911z M339.861,33.587c-1.62,0-2.551,1.261-2.551,3.181
			c0,1.439,0.631,3.779,3.091,3.779c1.62,0,2.55-1.109,2.55-2.85C342.951,36.137,342.32,33.587,339.861,33.587z"/>
		<path fill="#FFFFFF" d="M353.092,46.697l-3.449,0.09l-0.149-1.051l2.1-0.299V34.486l-2.1,0.181l-0.149-1.05l3.601-0.93l1.5-0.121
			v12.871l2.25,0.299l-0.15,1.051L353.092,46.697z M351.592,26.058l2.16-0.15l0.84,0.15l0.15,1.68l-0.33,1.439l-2.13,0.18
			l-0.811-0.18l-0.181-1.68L351.592,26.058z"/>
		<path fill="#FFFFFF" d="M361.491,46.697l-3.449,0.09l-0.15-1.051l2.101-0.299V34.486l-2.101,0.181l-0.148-1.05l3.6-0.93l1.29-0.09
			l0.149,2.52l4.439-2.91c3.841,0,4.471,1.29,4.471,4.891v8.34l2.278,0.299l-0.148,1.051l-3.45-0.09l-2.88,0.09l-0.149-1.051
			l1.5-0.299v-8.58c0-1.561-0.689-2.25-1.979-2.25c-1.05,0-2.101,0.66-3.12,1.35l-0.899,0.6v8.881l1.649,0.299l-0.149,1.051
			L361.491,46.697z"/>
		<path fill="#FFFFFF" d="M377.271,39.107c0,3.42,1.828,5.85,4.979,5.85c1.2,0,2.64-0.57,3.75-1.26l0.479,1.14
			c-1.438,0.99-3.329,1.83-5.25,2.37c-3.629,0-6.898-2.58-6.898-7.29c0-4.438,2.67-6.81,6.78-7.709c3.959,0,5.31,2.49,5.31,5.64
			v1.26H377.271L377.271,39.107z M383.301,37.607c0-2.311-0.45-3.9-2.76-3.9c-1.83,0-3,1.71-3.24,4.2L383.301,37.607z"/>
		<path fill="#FFFFFF" d="M391.372,39.107c0,3.42,1.829,5.85,4.979,5.85c1.2,0,2.641-0.57,3.75-1.26l0.479,1.14
			c-1.439,0.99-3.33,1.83-5.25,2.37c-3.63,0-6.899-2.58-6.899-7.29c0-4.438,2.67-6.81,6.78-7.709c3.959,0,5.311,2.49,5.311,5.64
			v1.26H391.372L391.372,39.107z M397.401,37.607c0-2.311-0.45-3.9-2.761-3.9c-1.83,0-3,1.71-3.239,4.2L397.401,37.607z"/>
		<path fill="#FFFFFF" d="M406.941,36.557l3.42-4.199h2.398v3h-2.22c-0.72,0.149-2.04,1.14-2.85,2.129l-0.601,0.721v7.141
			l3.149,0.299l-0.15,1.141l-4.35-0.09l-3.359,0.09l-0.149-1.051l2.1-0.299V34.486l-2.1,0.181l-0.149-1.05l3.6-0.93l1.2-0.09
			L406.941,36.557z"/>
		<path fill="#FFFFFF" d="M418.011,46.697l-3.449,0.09l-0.149-1.051l2.1-0.299V34.486l-2.1,0.181l-0.149-1.05l3.601-0.93l1.5-0.121
			v12.871l2.25,0.299l-0.15,1.051L418.011,46.697z M416.511,26.058l2.16-0.15l0.84,0.15l0.15,1.68l-0.33,1.439l-2.13,0.18
			l-0.811-0.18l-0.181-1.68L416.511,26.058z"/>
		<path fill="#FFFFFF" d="M426.41,46.697l-3.449,0.09l-0.15-1.051l2.101-0.299V34.486l-2.101,0.181l-0.148-1.05l3.6-0.93l1.29-0.09
			l0.149,2.52l4.439-2.91c3.841,0,4.471,1.29,4.471,4.891v8.34l2.278,0.299l-0.148,1.051l-3.45-0.09l-2.88,0.09l-0.149-1.051
			l1.499-0.299v-8.58c0-1.561-0.688-2.25-1.979-2.25c-1.05,0-2.101,0.66-3.12,1.35l-0.899,0.6v8.881l1.649,0.299l-0.149,1.051
			L426.41,46.697z"/>
		<path fill="#FFFFFF" d="M450.56,34.037l1.62-1.83h1.801v2.43h-1.801l-0.989,0.48c0.181,0.449,0.301,0.93,0.301,1.439
			c0,2.551-1.771,4.351-5.852,5.4c-0.42,0-0.81,0-1.17-0.061l-1.619,1.86c0,0.63,0.449,1.05,1.171,1.05h5.488
			c2.73,0,3.931,1.26,3.931,3.09c0,2.459-3.119,4.86-7.649,6.209c-4.35,0-6.54-1.35-6.54-4.14v-0.51l3.271-2.521
			c-2.102-0.779-2.25-1.74-2.25-3.119v-0.181l3-2.069c-1.892-0.66-3.12-2.101-3.12-3.959c0-2.551,1.739-4.351,5.85-5.4
			C447.95,32.208,449.6,32.896,450.56,34.037z M443.601,47.207c-1.529,1.68-1.649,2.22-1.649,2.641c0,1.409,1.62,2.489,4.08,2.489
			s4.56-1.59,4.56-3.601c0-1.079-0.81-1.529-2.85-1.529H443.601z M445.55,33.587c-1.62,0-2.55,1.261-2.55,3.181
			c0,1.439,0.63,3.779,3.09,3.779c1.62,0,2.55-1.109,2.55-2.85C448.64,36.137,448.01,33.587,445.55,33.587z"/>
	</g>
	<g>
		<path fill="#FFFFFF" d="M71.94,17.074l-1.88,0.06l-0.1-0.7l0.98-0.2v-5.721c0-1.04-0.48-1.5-1.28-1.5c-0.6,0-1.38,0.44-2.12,0.9
			l-0.601,0.38v5.941l1.101,0.2l-0.1,0.7l-1.9-0.06l-2.101,0.06l-0.1-0.7l1.2-0.2V3.991l-0.72,0.12l-4.061-0.06v12.123l2.3,0.26
			l-0.1,0.7l-3.24-0.06l-3.361,0.06l-0.1-0.7l2.4-0.26V4.051l-3,0.06l-0.92,2.5h-0.78v-3.54l5.741,0.04l4.921-0.04l2.141-0.24h0.68
			v6.481l2.921-1.9c2.561,0,2.98,0.96,2.98,3.501v5.321l1.5,0.2l-0.1,0.7L71.94,17.074z"/>
		<path fill="#FFFFFF" d="M77.136,12.013c0,2.28,1.22,3.901,3.321,3.901c0.8,0,1.76-0.38,2.5-0.84l0.32,0.76
			c-0.96,0.66-2.22,1.22-3.5,1.581c-2.42,0-4.601-1.721-4.601-4.861c0-2.96,1.78-4.541,4.521-5.141c2.641,0,3.541,1.661,3.541,3.761
			v0.84L77.136,12.013L77.136,12.013z M81.157,11.013c0-1.541-0.3-2.601-1.841-2.601c-1.22,0-2,1.14-2.16,2.8L81.157,11.013z"/>
		<path fill="#FFFFFF" d="M97.058,3.792l0.1-0.7l2.561,0.06l2.34-0.06l0.1,0.7l-1.701,0.26v8.162c0,2.601-1.06,4.341-5.041,5.261
			c-3.94,0-5.341-2.12-5.341-5.301V4.051l-1.8-0.26l0.1-0.7l2.761,0.06l2.741-0.06l0.1,0.7l-1.701,0.26v8.422
			c0,2.48,1.061,3.901,3.341,3.901c2.081,0,3.241-1.4,3.241-3.961V4.051L97.058,3.792z"/>
		<path fill="#FFFFFF" d="M104.856,17.074l-2.3,0.06l-0.1-0.7l1.4-0.2V8.933l-1.4,0.12l-0.1-0.7l2.4-0.62l0.86-0.06l0.1,1.68
			l2.96-1.94c2.561,0,2.981,0.86,2.981,3.261v5.561l1.52,0.2l-0.1,0.7l-2.3-0.06l-1.92,0.06l-0.1-0.7l1-0.2v-5.721
			c0-1.04-0.46-1.5-1.32-1.5c-0.7,0-1.4,0.44-2.081,0.9l-0.6,0.4v5.921l1.1,0.2l-0.1,0.7L104.856,17.074z"/>
		<path fill="#FFFFFF" d="M116.316,17.074l-2.3,0.06l-0.1-0.7l1.4-0.2V8.933l-1.4,0.12l-0.1-0.7l2.4-0.62l1-0.08v8.582l1.5,0.2
			l-0.1,0.7L116.316,17.074z M115.316,3.312l1.44-0.1l0.561,0.1l0.1,1.12l-0.22,0.96l-1.42,0.12l-0.54-0.12l-0.12-1.12
			L115.316,3.312z"/>
		<path fill="#FFFFFF" d="M124.337,15.834l2.42-7.242l-0.92-0.2l0.1-0.7l1.76,0.06l1.66-0.06l0.1,0.7l-1.28,0.2l-3.281,8.222
			l-1.46,0.601l-3.48-8.822l-1.24-0.2l0.1-0.7l2.3,0.06l2.101-0.06l0.1,0.7l-1.32,0.2l2.18,5.861L124.337,15.834z"/>
		<path fill="#FFFFFF" d="M131.417,12.013c0,2.28,1.22,3.901,3.321,3.901c0.8,0,1.76-0.38,2.5-0.84l0.32,0.76
			c-0.96,0.66-2.22,1.22-3.5,1.581c-2.42,0-4.601-1.721-4.601-4.861c0-2.96,1.78-4.541,4.521-5.141c2.641,0,3.541,1.661,3.541,3.761
			v0.84L131.417,12.013L131.417,12.013z M135.438,11.013c0-1.541-0.3-2.601-1.841-2.601c-1.22,0-2,1.14-2.16,2.8L135.438,11.013z"/>
		<path fill="#FFFFFF" d="M141.997,10.313l2.28-2.801h1.601v2h-1.48c-0.48,0.1-1.36,0.76-1.9,1.42l-0.4,0.48v4.761l2.101,0.2
			l-0.1,0.76l-2.901-0.06l-2.24,0.06l-0.1-0.7l1.4-0.2v-7.3l-1.4,0.12l-0.1-0.7l2.4-0.62l0.8-0.06L141.997,10.313z"/>
		<path fill="#FFFFFF" d="M152.177,8.833c-0.2-0.12-0.8-0.44-1.521-0.44c-0.78,0-1.521,0.42-1.521,1.18c0,0.64,0.5,1.04,1.4,1.5
			l1.541,0.78c1.34,0.68,1.88,1.44,1.88,2.581c0,1.8-1.46,2.48-3.761,2.981c-1.22,0-2.521-0.601-3.041-0.9l-0.38-2.261h1.28
			l0.68,1.661c0.42,0.28,1,0.5,1.64,0.5c1.061,0,1.601-0.68,1.601-1.521c0-0.78-0.42-1.12-1.46-1.66l-1.58-0.82
			c-0.86-0.44-1.681-1.2-1.681-2.32c0-1.4,1.3-2.181,3.621-2.681c1.08,0,2.24,0.48,2.82,0.9v2h-1.06L152.177,8.833z"/>
		<path fill="#FFFFFF" d="M157.696,17.074l-2.3,0.06l-0.1-0.7l1.4-0.2V8.933l-1.4,0.12l-0.1-0.7l2.4-0.62l1-0.08v8.582l1.5,0.2
			l-0.1,0.7L157.696,17.074z M156.696,3.312l1.44-0.1l0.561,0.1l0.1,1.12l-0.22,0.96l-1.42,0.12l-0.54-0.12l-0.12-1.12
			L156.696,3.312z"/>
		<path fill="#FFFFFF" d="M167.617,21.815v-2h1.721l1.98-3.021l-0.8,0.24l-3.361-8.422h-3.021v6.102c0,0.58,0.22,1.2,1.06,1.2
			c0.58,0,1.2-0.28,1.76-0.56l0.34,0.68l-2.521,1.38c-2.241,0-2.541-0.8-2.541-2.601v-5.96h-1.94v-0.34l0.7-0.7h1.3v-1.3l1.3-1.3
			h0.52v2.5h6.301l0.1,0.68l-1.32,0.2l2.22,5.861l0.16,1.38l2.48-7.242l-0.92-0.2l0.1-0.7l1.76,0.06l1.66-0.06l0.1,0.7l-1.28,0.2
			l-3.241,8.182l-2.24,5.041H167.617z"/>
		<path fill="#FFFFFF" d="M189.937,12.213c0,2.98-1.82,4.701-4.921,5.201c-2.661,0-4.461-2.061-4.461-4.781
			c0-3,1.82-4.701,4.921-5.221C188.137,7.412,189.937,9.493,189.937,12.213z M185.516,16.434c1.601,0,2.42-1.64,2.42-3.801
			c0-2.541-1.22-4.241-2.96-4.241c-1.62,0-2.42,1.64-2.42,3.821C182.556,14.494,183.736,16.434,185.516,16.434z"/>
		<path fill="#FFFFFF" d="M194.436,7.912h2.501v0.94h-2.501v7.381l2.301,0.14l-0.1,0.76l-3.101-0.06l-2.3,0.06l-0.1-0.7l1.4-0.2
			v-7.38h-1.76v-0.34l0.6-0.7h1.16v-0.2c0-1.2,0.38-1.98,1.101-2.801l1.68-1.9h2.521v1.601h-2.601l-0.38,0.54
			c-0.28,0.38-0.42,0.96-0.42,2.26L194.436,7.912L194.436,7.912z"/>
		<path fill="#FFFFFF" d="M212.236,17.134l-3.24-0.06l-3.361,0.06l-0.1-0.7l2.4-0.26V4.051l-3,0.04l-0.92,2.541h-0.78V3.091
			l5.741,0.06l5.761-0.06v3.541h-0.78l-0.92-2.541l-3-0.04v12.123l2.3,0.26L212.236,17.134z"/>
		<path fill="#FFFFFF" d="M215.795,12.013c0,2.28,1.22,3.901,3.321,3.901c0.8,0,1.76-0.38,2.5-0.84l0.32,0.76
			c-0.96,0.66-2.22,1.22-3.5,1.581c-2.42,0-4.601-1.721-4.601-4.861c0-2.96,1.78-4.541,4.521-5.141c2.641,0,3.541,1.661,3.541,3.761
			v0.84L215.795,12.013L215.795,12.013z M219.816,11.013c0-1.541-0.3-2.601-1.841-2.601c-1.22,0-2,1.14-2.16,2.8L219.816,11.013z"/>
		<path fill="#FFFFFF" d="M226.456,16.434l-0.1,0.7l-1.561-0.06l-2.06,0.06l-0.1-0.7l1.4-0.2l2.96-3.641l-2.901-3.981l-1.24-0.2
			l0.1-0.72l2.301,0.06l1.9-0.06l0.1,0.72l-0.78,0.2l1.48,2.221l0.159,0.52l1.9-2.741l-0.979-0.2l0.1-0.72l1.56,0.06l2.062-0.06
			l0.101,0.72l-1.44,0.2l-2.642,3.201l3.142,4.421l1.239,0.2l-0.1,0.7l-2.3-0.06l-1.899,0.06l-0.101-0.7l0.82-0.2l-1.78-2.581
			l-0.16-0.46l-2.121,3.041L226.456,16.434z"/>
		<path fill="#FFFFFF" d="M237.795,7.412c2.521,0,3.161,0.64,3.161,3.181v3.921c0,0.86,0.141,1.18,0.34,1.5h1l0.08,0.7l-2.581,0.5
			l-0.62-1.541l-2.381,1.741c-1.72,0-2.939-0.96-2.939-2.561c0-0.72,0.26-1.241,0.699-1.841l4.502-1.5v-1
			c0-1.2-0.101-1.92-1.181-1.92c-0.54,0-1.2,0.18-1.642,0.36l-0.34,1.58h-1.72v-1.52L237.795,7.412z M239.056,12.313l-2.9,1.2
			c-0.301,0.3-0.4,0.7-0.4,1.12c0,1.02,0.58,1.38,1.16,1.38c0.561,0,1.041-0.34,1.3-0.52l0.841-0.581V12.313L239.056,12.313z"/>
		<path fill="#FFFFFF" d="M248.576,8.833c-0.2-0.12-0.8-0.44-1.521-0.44c-0.781,0-1.521,0.42-1.521,1.18c0,0.64,0.5,1.04,1.4,1.5
			l1.541,0.78c1.34,0.68,1.879,1.44,1.879,2.581c0,1.8-1.459,2.48-3.76,2.981c-1.221,0-2.521-0.601-3.041-0.9l-0.381-2.261h1.28
			l0.68,1.661c0.421,0.28,1,0.5,1.64,0.5c1.062,0,1.602-0.68,1.602-1.521c0-0.78-0.42-1.12-1.46-1.66l-1.58-0.82
			c-0.86-0.44-1.681-1.2-1.681-2.32c0-1.4,1.3-2.181,3.621-2.681c1.08,0,2.24,0.48,2.819,0.9v2h-1.06L248.576,8.833z"/>
		<path fill="#FFFFFF" d="M260.435,7.412c2.521,0,3.162,0.64,3.162,3.181v3.921c0,0.86,0.139,1.18,0.34,1.5h1l0.08,0.7l-2.582,0.5
			l-0.619-1.541l-2.381,1.741c-1.721,0-2.94-0.96-2.94-2.561c0-0.72,0.26-1.241,0.7-1.841l4.5-1.5v-1c0-1.2-0.1-1.92-1.18-1.92
			c-0.539,0-1.199,0.18-1.641,0.36l-0.34,1.58h-1.721v-1.52L260.435,7.412z M261.694,12.313l-2.9,1.2c-0.3,0.3-0.4,0.7-0.4,1.12
			c0,1.02,0.58,1.38,1.16,1.38c0.561,0,1.041-0.34,1.301-0.52l0.84-0.581V12.313L261.694,12.313z"/>
		<path fill="#FFFFFF" d="M264.915,8.853v-0.34l0.7-0.7h1.3v-1.3l1.3-1.3h0.521v2.74h3.021v0.9h-3v5.861c0,0.58,0.22,1.2,1.06,1.2
			c0.58,0,1.021-0.2,1.582-0.48l0.34,0.68l-2.34,1.3c-2.242,0-2.541-0.8-2.541-2.601v-5.96H264.915z"/>
		<path fill="#FFFFFF" d="M280.194,12.433l-1.299,3.741l1.739,0.26l-0.1,0.7l-2.4-0.06l-2.14,0.06l-0.1-0.7l1.56-0.22l4.961-12.962
			l1.201-0.34l5.221,13.303l1.562,0.22l-0.101,0.7l-2.761-0.06l-2.641,0.06l-0.1-0.7l1.7-0.26l-1.36-3.741L280.194,12.433
			L280.194,12.433z M282.854,6.212l-0.14-1.08l-2.2,6.361h4.26L282.854,6.212z"/>
		<path fill="#FFFFFF" d="M298.896,14.514c0,0.86,0.101,1.18,0.24,1.5h1l0.08,0.7l-2.581,0.5l-0.56-1.621l-2.9,1.821
			c-2.641,0-3.081-0.94-3.081-3.261v-5.22l-1.399,0.1l-0.101-0.78l2.4-0.52l1-0.08v6.661c0,1.041,0.44,1.5,1.42,1.5
			c0.62,0,1.42-0.5,2.181-1l0.4-0.26V8.933l-1.2,0.1l-0.101-0.78l2.201-0.52l1-0.08V14.514L298.896,14.514z"/>
		<path fill="#FFFFFF" d="M306.515,8.833c-0.199-0.12-0.8-0.44-1.521-0.44c-0.78,0-1.521,0.42-1.521,1.18c0,0.64,0.5,1.04,1.399,1.5
			l1.541,0.78c1.34,0.68,1.88,1.44,1.88,2.581c0,1.8-1.46,2.48-3.761,2.981c-1.22,0-2.521-0.601-3.041-0.9l-0.38-2.261h1.279
			l0.681,1.661c0.42,0.28,1,0.5,1.64,0.5c1.061,0,1.602-0.68,1.602-1.521c0-0.78-0.42-1.12-1.461-1.66l-1.58-0.82
			c-0.859-0.44-1.68-1.2-1.68-2.32c0-1.4,1.299-2.181,3.62-2.681c1.08,0,2.24,0.48,2.82,0.9v2h-1.061L306.515,8.833z"/>
		<path fill="#FFFFFF" d="M308.934,8.853v-0.34l0.7-0.7h1.3v-1.3l1.301-1.3h0.52v2.74h3.021v0.9h-3v5.861c0,0.58,0.22,1.2,1.06,1.2
			c0.58,0,1.021-0.2,1.581-0.48l0.34,0.68l-2.34,1.3c-2.241,0-2.541-0.8-2.541-2.601v-5.96H308.934z"/>
		<path fill="#FFFFFF" d="M319.314,17.074l-2.301,0.06l-0.1-0.7l1.4-0.2V8.933l-1.4,0.12l-0.1-0.7l2.399-0.62l1-0.08v8.582l1.5,0.2
			l-0.1,0.7L319.314,17.074z M318.314,3.312l1.439-0.1l0.562,0.1l0.1,1.12l-0.22,0.96l-1.42,0.12l-0.54-0.12l-0.12-1.12
			L318.314,3.312z"/>
		<path fill="#FFFFFF" d="M325.014,17.074l-2.3,0.06l-0.1-0.7l1.399-0.2V8.933l-1.399,0.12l-0.101-0.7l2.4-0.62l0.86-0.06l0.1,1.68
			l2.96-1.94c2.561,0,2.981,0.86,2.981,3.261v5.561l1.52,0.2l-0.1,0.7l-2.301-0.06l-1.92,0.06l-0.1-0.7l1-0.2v-5.721
			c0-1.04-0.46-1.5-1.32-1.5c-0.7,0-1.399,0.44-2.081,0.9l-0.6,0.4v5.921l1.1,0.2l-0.1,0.7L325.014,17.074z"/>
	</g>
</g>
</svg>
