<?xml version="1.0" standalone="no"?>
<!DOCTYPE svg PUBLIC "-//W3C//DTD SVG 20010904//EN"
 "http://www.w3.org/TR/2001/REC-SVG-20010904/DTD/svg10.dtd">
<svg version="1.0" xmlns="http://www.w3.org/2000/svg"
 width="2000.000000pt" height="1294.000000pt" viewBox="0 0 2000.000000 1294.000000"
 preserveAspectRatio="xMidYMid meet">

<g transform="translate(0.000000,1294.000000) scale(0.100000,-0.100000)"
fill="#000000" stroke="none">
<path d="M5320 6555 l0 -955 200 0 200 0 0 629 c0 357 4 640 9 654 24 62 97
79 142 31 l24 -26 3 -644 2 -644 195 0 195 0 0 643 c0 391 -4 667 -10 707 -19
116 -84 216 -167 255 -20 10 -64 22 -98 28 -121 21 -224 -25 -275 -122 l-19
-36 -1 218 0 217 -200 0 -200 0 0 -955z"/>
<path d="M17920 6555 l0 -955 200 0 200 0 0 629 c0 357 4 640 9 654 24 62 97
79 142 31 l24 -26 3 -644 2 -644 195 0 195 0 0 643 c0 391 -4 667 -10 707 -19
116 -84 216 -167 255 -20 10 -64 22 -98 28 -121 21 -224 -25 -275 -122 l-19
-36 -1 218 0 217 -200 0 -200 0 0 -955z"/>
<path d="M1120 6550 l0 -950 390 0 390 0 0 160 0 160 -195 0 -195 0 0 790 0
790 -195 0 -195 0 0 -950z"/>
<path d="M9930 6550 l0 -950 185 0 185 0 1 468 1 467 94 -460 c51 -253 93
-463 94 -467 0 -5 83 -8 185 -8 l185 0 0 950 0 950 -180 0 -180 0 0 -442 c0
-243 -2 -439 -5 -436 -3 3 -41 192 -85 419 -44 228 -82 424 -85 437 -5 22 -6
22 -200 22 l-195 0 0 -950z"/>
<path d="M15140 7330 l0 -170 -55 0 -56 0 3 -147 3 -148 52 -3 52 -3 3 -557
c3 -511 4 -560 21 -597 41 -92 102 -120 252 -119 55 0 126 6 158 13 l57 12 0
134 0 133 -40 -5 c-74 -10 -70 -38 -70 503 l0 483 53 3 52 3 3 148 3 147 -56
0 -55 0 0 170 0 170 -190 0 -190 0 0 -170z"/>
<path d="M2344 7225 c-176 -38 -299 -162 -345 -345 -20 -78 -20 -868 -1 -955
40 -176 143 -284 312 -326 79 -20 260 -17 335 5 124 37 199 95 250 195 51 102
55 141 55 606 0 466 -2 491 -56 596 -92 183 -318 275 -550 224z m168 -296 c46
-24 48 -50 48 -519 0 -357 -3 -447 -14 -475 -25 -59 -84 -73 -133 -31 l-28 24
-3 449 c-2 246 0 463 3 482 12 64 73 99 127 70z"/>
<path d="M3646 7225 c-50 -18 -100 -67 -131 -129 l-25 -50 0 87 0 87 -195 0
-195 0 0 -810 0 -810 195 0 194 0 3 638 c3 590 4 640 21 665 19 30 54 42 92
33 14 -4 33 -18 42 -33 17 -25 18 -75 21 -665 l3 -638 189 0 190 0 0 661 c0
724 -1 743 -59 845 -16 27 -48 63 -70 79 -75 51 -195 69 -275 40z"/>
<path d="M4420 7224 c-124 -33 -186 -124 -210 -309 -12 -93 -12 -742 0 -827
15 -106 46 -176 104 -233 59 -59 115 -80 216 -80 108 0 181 40 225 120 16 30
16 29 13 -50 -4 -90 -26 -145 -72 -179 -24 -18 -42 -21 -129 -21 -95 0 -107 2
-183 36 l-81 35 -15 -25 c-8 -14 -36 -63 -63 -109 -46 -79 -47 -83 -31 -101
27 -29 153 -88 221 -102 75 -16 344 -16 407 -1 185 46 275 129 325 299 15 52
18 137 21 801 l3 742 -201 0 -200 0 0 -77 -1 -78 -20 40 c-58 117 -176 160
-329 119z m310 -306 c38 -41 41 -80 38 -440 -3 -334 -4 -348 -24 -375 -26 -34
-86 -44 -114 -18 -33 30 -40 105 -40 433 0 325 6 387 36 409 28 21 81 16 104
-9z"/>
<path d="M6784 7225 c-176 -38 -299 -162 -345 -345 -20 -78 -20 -868 -1 -955
40 -176 143 -284 312 -326 79 -20 260 -17 335 5 124 37 199 95 250 195 51 102
55 141 55 606 0 466 -2 491 -56 596 -92 183 -318 275 -550 224z m168 -296 c46
-24 48 -50 48 -519 0 -357 -3 -447 -14 -475 -25 -59 -84 -73 -133 -31 l-28 24
-3 449 c-2 246 0 463 3 482 12 64 73 99 127 70z"/>
<path d="M8092 7221 c-59 -20 -114 -67 -142 -121 l-19 -35 -1 78 0 77 -195 0
-195 0 0 -810 0 -810 195 0 195 0 0 630 c0 592 1 630 18 639 26 14 129 38 195
46 l57 6 0 160 0 159 -27 0 c-16 -1 -52 -9 -81 -19z"/>
<path d="M8852 7227 c-55 -21 -99 -64 -131 -128 l-31 -62 0 91 0 92 -195 0
-195 0 0 -810 0 -810 195 0 194 0 3 633 c3 582 4 635 21 664 32 60 108 56 139
-7 17 -32 18 -85 18 -662 l0 -628 190 0 191 0 -3 698 c-3 695 -3 697 -25 752
-48 119 -133 178 -265 186 -44 2 -86 -1 -106 -9z"/>
<path d="M11415 7234 c-11 -2 -45 -9 -75 -15 -126 -25 -248 -125 -290 -236
-35 -95 -42 -210 -37 -618 4 -343 6 -387 25 -457 53 -197 154 -290 347 -318
135 -20 276 0 378 53 133 69 192 201 204 455 l6 132 -194 -2 -194 -3 -5 -145
c-3 -80 -9 -152 -13 -162 -12 -24 -61 -41 -97 -33 -58 13 -65 43 -65 280 l0
210 277 3 278 2 6 25 c3 14 4 132 2 262 -4 210 -7 246 -27 305 -55 171 -185
254 -406 263 -55 2 -109 2 -120 -1z m139 -317 c19 -26 21 -44 24 -188 l3 -159
-90 0 -91 0 0 133 c0 145 8 188 42 224 31 33 83 28 112 -10z"/>
<path d="M13777 7226 c-66 -24 -115 -64 -147 -119 l-30 -52 0 83 0 82 -195 0
-195 0 0 -810 0 -810 195 0 195 0 2 627 3 627 31 18 c18 10 80 26 138 35 l106
17 0 158 0 158 -32 0 c-18 -1 -50 -7 -71 -14z"/>
<path d="M14340 7230 c-169 -29 -296 -140 -352 -309 -21 -63 -22 -85 -26 -473
-4 -445 3 -526 51 -632 34 -74 104 -146 173 -180 156 -77 409 -69 553 17 71
42 134 127 164 221 21 69 22 82 22 531 0 451 0 461 -23 525 -79 229 -297 346
-562 300z m159 -309 c11 -11 24 -37 30 -58 16 -56 14 -877 -2 -923 -22 -63
-90 -78 -138 -30 l-30 29 3 476 3 477 28 24 c34 29 80 31 106 5z"/>
<path d="M16105 7229 c-186 -31 -306 -135 -351 -304 -21 -79 -20 -888 2 -993
50 -243 187 -347 454 -346 265 1 396 90 455 310 10 33 19 119 22 197 l6 137
-190 0 -190 0 -5 -138 c-6 -176 -22 -212 -93 -212 -13 0 -36 10 -50 23 -35 30
-46 115 -43 318 l3 154 283 3 282 2 0 239 c0 259 -6 313 -47 403 -74 165 -291
249 -538 207z m164 -302 c28 -30 41 -110 41 -249 l0 -108 -96 0 -96 0 4 148
c4 153 15 198 55 221 30 17 68 12 92 -12z"/>
<path d="M17183 7229 c-180 -30 -283 -127 -335 -316 -20 -72 -22 -107 -26
-465 -2 -251 0 -413 7 -460 38 -253 157 -370 403 -400 232 -29 435 64 514 235
28 61 29 66 32 265 l3 202 -195 0 -196 0 0 -165 c0 -129 -3 -173 -15 -195 -26
-51 -104 -54 -139 -7 -20 28 -21 40 -24 465 -2 240 0 452 3 471 8 45 46 81 85
81 76 0 90 -34 90 -221 l0 -139 196 0 195 0 -3 183 c-3 177 -4 184 -32 245
-80 173 -309 263 -563 221z"/>
<path d="M12103 6543 c4 -728 4 -729 57 -833 43 -84 124 -124 255 -124 78 -1
96 2 132 23 41 23 73 61 107 126 15 29 15 29 16 -52 l0 -83 195 0 195 0 0 810
0 810 -195 0 -194 0 -3 -632 c-3 -653 -4 -665 -42 -690 -16 -11 -74 -10 -96 2
-11 6 -24 27 -30 48 -6 24 -10 259 -10 655 l0 617 -196 0 -195 0 4 -677z"/>
</g>
</svg>

