<?xml version="1.0" encoding="UTF-8"?><svg id="Layer_1" xmlns="http://www.w3.org/2000/svg" viewBox="0 0 110.76 51.67"><g id="Group_263196"><path id="Path_138765" d="M55.57,49.34l-51.83-.3L29.91,4.31l25.66,45.03ZM6.82,47.29l45.69.26L29.89,7.85,6.82,47.29Z" style="fill:#be5927; stroke-width:0px;"/><path d="M56.43,49.84l-53.56-.31L29.92,3.31l26.52,46.54ZM4.61,48.54l50.09.29L29.91,5.31,4.61,48.54ZM53.38,48.06l-47.42-.27L29.9,6.85l23.48,41.2ZM7.69,46.79l43.96.25L29.89,8.85,7.69,46.79Z" style="fill:#fff; stroke-width:0px;"/><path d="M0,51.17l59.29.34L29.94,0,0,51.17ZM10.57,45.16L29.87,12.16l18.92,33.21-38.22-.22Z" style="fill:#bf5700; stroke-width:0px;"/><path d="M85.83,1.68h-.2c-13.75,0-24.95,11.17-24.99,24.92-.04,13.78,11.14,25.02,24.93,25.06h.2c13.75,0,24.95-11.17,24.99-24.92.04-13.78-11.14-25.02-24.93-25.06ZM82.49,8.06l-.09,15.41-15.3-.09c.66-3.79,2.46-7.29,5.23-10.07,2.8-2.8,6.33-4.6,10.16-5.25ZM82.36,29.54l-.09,15.71c-3.77-.7-7.3-2.53-10.01-5.29-2.86-2.89-4.65-6.56-5.24-10.51l15.34.09ZM88.35,45.37l.09-15.79,15.91.09c-1.32,8.12-7.83,14.54-16,15.7ZM88.48,23.5l.09-15.49c8.05,1.24,14.43,7.57,15.77,15.58l-15.86-.09Z" style="fill:#bf5700; stroke-width:0px;"/></g></svg>